HIERARCHY
ROOT Hips
{
	OFFSET 0.000000 0.000000 0.000000
	CHANNELS 6 Xposition Yposition Zposition Xrotation Yrotation Zrotation
	JOINT Chest
	{
		OFFSET 0.000000 0.009282 11.569106
		CHANNELS 3 Xrotation Yrotation Zrotation
		JOINT Chest2
		{
			OFFSET 0.000000 -0.016863 9.269641
			CHANNELS 3 Xrotation Yrotation Zrotation
			JOINT Chest3
			{
				OFFSET 0.000000 0.000000 8.374491
				CHANNELS 3 Xrotation Yrotation Zrotation
				JOINT Chest4
				{
					OFFSET 0.000000 0.000000 8.374493
					CHANNELS 3 Xrotation Yrotation Zrotation
					JOINT Neck
					{
						OFFSET 0.000000 -0.000001 12.152554
						CHANNELS 3 Xrotation Yrotation Zrotation
						JOINT Head
						{
							OFFSET 0.000000 -0.040100 7.802319
							CHANNELS 3 Xrotation Yrotation Zrotation
							End Site
							{
								OFFSET 0.000000 -0.020946 14.853096
							}
						}
					}
					JOINT RightCollar
					{
						OFFSET -2.894404 0.000000 6.791374
						CHANNELS 3 Xrotation Yrotation Zrotation
						JOINT RightShoulder
						{
							OFFSET -13.574684 0.000000 0.000000
							CHANNELS 3 Xrotation Yrotation Zrotation
							JOINT RightElbow
							{
								OFFSET -23.923903 0.000000 0.000000
								CHANNELS 3 Xrotation Yrotation Zrotation
								JOINT RightWrist
								{
									OFFSET -19.846718 -0.012765 0.000000
									CHANNELS 3 Xrotation Yrotation Zrotation
									End Site
									{
										OFFSET -14.973145 0.000000 0.000000
									}
								}
							}
						}
					}
					JOINT LeftCollar
					{
						OFFSET 2.894404 0.000000 6.791374
						CHANNELS 3 Xrotation Yrotation Zrotation
						JOINT LeftShoulder
						{
							OFFSET 13.574684 0.000000 0.000000
							CHANNELS 3 Xrotation Yrotation Zrotation
							JOINT LeftElbow
							{
								OFFSET 23.923903 0.000000 0.000000
								CHANNELS 3 Xrotation Yrotation Zrotation
								JOINT LeftWrist
								{
									OFFSET 19.846718 -0.012765 0.000000
									CHANNELS 3 Xrotation Yrotation Zrotation
									End Site
									{
										OFFSET 14.973145 0.000000 0.000000
									}
								}
							}
						}
					}
				}
			}
		}
	}
	JOINT RightHip
	{
		OFFSET -9.469263 -0.004642 0.045487
		CHANNELS 3 Xrotation Yrotation Zrotation
		JOINT RightKnee
		{
			OFFSET 0.000000 -0.002666 -40.478676
			CHANNELS 3 Xrotation Yrotation Zrotation
			JOINT RightAnkle
			{
				OFFSET 0.000000 -0.049110 -35.224068
				CHANNELS 3 Xrotation Yrotation Zrotation
				JOINT RightToe
				{
					OFFSET 0.000000 -12.539530 -6.151390
					CHANNELS 3 Xrotation Yrotation Zrotation
					End Site
					{
						OFFSET 0.000000 -5.044995 -1.291870
					}
				}
			}
		}
	}
	JOINT LeftHip
	{
		OFFSET 9.469263 -0.004642 0.045487
		CHANNELS 3 Xrotation Yrotation Zrotation
		JOINT LeftKnee
		{
			OFFSET 0.000000 -0.002666 -40.478676
			CHANNELS 3 Xrotation Yrotation Zrotation
			JOINT LeftAnkle
			{
				OFFSET 0.000000 -0.049110 -35.224068
				CHANNELS 3 Xrotation Yrotation Zrotation
				JOINT LeftToe
				{
					OFFSET 0.000000 -12.539530 -6.151390
					CHANNELS 3 Xrotation Yrotation Zrotation
					End Site
					{
						OFFSET 0.000000 -5.044995 -1.291870
					}
				}
			}
		}
	}
}
MOTION
Frames: 14
Frame Time: 0.016667
-10.995216 -1.994724 82.821770 2.897835 7.388445 -112.906688 4.758370 2.573488 2.437426 2.121921 1.117048 1.156795 2.121921 1.117050 1.156799 1.593512 0.833785 0.871467 19.160933 -1.188460 -2.947589 -0.599061 -1.234094 -5.763928 -6.489643 -5.737099 -7.276061 5.339535 -58.584028 11.750213 -18.979673 -64.570068 23.143001 -26.585287 -15.574879 -16.950038 0.502206 5.790549 -15.201761 -79.181625 63.414277 0.672302 3.905230 48.375443 -77.448376 -34.214101 -6.942690 -33.511729 10.533478 0.134281 -2.478611 4.163326 -1.263163 -1.626526 -7.333280 -0.826766 4.799247 0.068790 -0.102380 0.042969 10.659508 -0.311651 0.245004 4.711501 -1.126878 4.623343 -7.565223 1.489073 -1.755271 -0.025842 0.023208 -0.044009 
-11.050796 -2.007694 82.815346 2.894387 7.385730 -112.790964 4.756636 2.628988 2.432584 2.121699 1.139041 1.153291 2.121699 1.139041 1.153293 1.593378 0.850292 0.868907 19.170070 -1.228563 -2.936055 -0.584154 -1.311373 -5.755532 -6.478104 -5.743886 -7.400768 5.032193 -57.365768 11.296693 -16.386761 -63.295923 24.696979 -23.859067 -16.085282 -18.327611 0.497824 5.752467 -15.220940 -78.653522 63.310430 0.218064 3.931417 47.896893 -77.359194 -34.195175 -7.667308 -34.333230 10.564660 0.149855 -2.586226 4.199217 -1.294310 -1.661832 -7.399578 -0.804888 4.815089 0.062547 -0.112845 0.045994 10.641166 -0.312724 0.071017 4.779847 -1.113033 4.655691 -7.610680 1.475496 -1.746467 -0.029211 0.012660 -0.046443 
-11.109878 -2.024157 82.809303 2.882836 7.374924 -112.639887 4.746331 2.691059 2.428379 2.117906 1.163342 1.148868 2.117907 1.163341 1.148868 1.590570 0.868542 0.865667 19.184301 -1.273025 -2.925159 -0.560004 -1.396631 -5.749623 -6.421585 -5.772700 -7.443857 4.297815 -56.037420 10.469497 -12.735270 -61.570761 26.956190 -20.650536 -16.592787 -19.555626 0.495812 5.706343 -15.233663 -78.060982 63.226761 -0.270511 3.969233 47.733276 -77.256283 -34.231221 -8.164798 -35.024097 10.590778 0.160037 -2.715174 4.246580 -1.322079 -1.724637 -7.479698 -0.784294 4.838481 0.052782 -0.123239 0.047819 10.605217 -0.316864 -0.116755 4.855985 -1.091967 4.727504 -7.649265 1.478298 -1.802428 -0.036541 -0.008499 -0.048850 
-11.175630 -2.038897 82.802353 2.864663 7.341927 -112.442187 4.715175 2.750469 2.416737 2.103574 1.186408 1.141190 2.103574 1.186406 1.141188 1.579846 0.885894 0.859954 19.209332 -1.321289 -2.913230 -0.516003 -1.489611 -5.742893 -6.381636 -5.805890 -7.460946 3.362697 -54.424962 9.515525 -8.397286 -59.602758 29.376316 -17.407891 -16.921290 -20.587807 0.509165 5.681750 -15.260075 -77.425829 63.136131 -0.788817 4.040940 47.684119 -77.156317 -33.926202 -8.906506 -35.855047 10.589329 0.169308 -2.898405 4.308970 -1.351082 -1.791669 -7.571245 -0.770620 4.893233 0.045126 -0.134565 0.049943 10.549062 -0.335628 -0.320583 4.925327 -1.062611 4.796170 -7.684034 1.494477 -1.850885 -0.040880 -0.038660 -0.050673 
-11.246742 -2.059261 82.793694 2.833441 7.288178 -112.190980 4.681677 2.823515 2.409762 2.088102 1.213847 1.134626 2.088103 1.213847 1.134626 1.568279 0.906527 0.855099 19.227034 -1.390740 -2.903339 -0.486543 -1.620322 -5.746694 -6.446123 -5.866317 -7.424910 2.529798 -52.541623 8.612803 -3.376218 -57.141100 32.071891 -14.523301 -17.197685 -21.580095 0.514499 5.623714 -15.312198 -76.870835 63.058431 -1.247724 4.174785 47.437795 -77.035293 -33.209111 -10.119188 -36.993216 10.575607 0.182682 -3.149343 4.380130 -1.393095 -1.867008 -7.683206 -0.753379 4.932641 0.037459 -0.146513 0.050094 10.471228 -0.359041 -0.568654 4.977247 -1.035743 4.844128 -7.703695 1.521441 -1.919911 -0.042573 -0.072444 -0.051537 
-11.324007 -2.081517 82.783997 2.794012 7.219274 -111.879557 4.646742 2.912236 2.411700 2.072109 1.247147 1.133021 2.072109 1.247148 1.133023 1.556339 0.931538 0.853975 19.233842 -1.495462 -2.902989 -0.478891 -1.811964 -5.779334 -6.617322 -5.910954 -7.401979 1.999864 -50.541067 7.892880 2.086768 -54.013484 34.960624 -11.718713 -17.556834 -22.614365 0.508368 5.552751 -15.394299 -76.281137 63.007532 -1.752123 4.335849 46.871309 -76.904235 -32.432802 -11.675501 -38.260811 10.551162 0.192888 -3.449657 4.453297 -1.439393 -1.954498 -7.802192 -0.733494 4.984381 0.028510 -0.161064 0.050984 10.376207 -0.379402 -0.885528 5.022902 -1.022233 4.857240 -7.712648 1.561886 -1.931806 -0.044882 -0.113292 -0.051484 
-11.403762 -2.106253 82.773949 2.740801 7.140924 -111.512134 4.594519 3.008480 2.422980 2.049554 1.284727 1.134618 2.049555 1.284725 1.134617 1.539492 0.959757 0.855250 19.239748 -1.627654 -2.913190 -0.474180 -2.050397 -5.840008 -6.681464 -5.947821 -7.261417 1.630414 -48.481236 7.240213 7.504554 -50.160458 37.730453 -8.787935 -18.093677 -23.745445 0.569287 5.483764 -15.497863 -75.679097 62.987882 -2.318838 4.521078 46.069202 -76.797677 -31.920841 -13.180356 -39.317919 10.525151 0.202442 -3.757616 4.521070 -1.487601 -2.061639 -7.923607 -0.704591 5.010877 0.014459 -0.179123 0.052139 10.259086 -0.399821 -1.263476 5.069532 -1.011830 4.868587 -7.704098 1.623324 -1.934585 -0.051922 -0.160943 -0.051226 
-11.486501 -2.130784 82.764374 2.679005 7.070181 -111.082652 4.542904 3.108304 2.434520 2.028083 1.325201 1.136168 2.028083 1.325201 1.136169 1.523464 0.990149 0.856499 19.236340 -1.779897 -2.934089 -0.487813 -2.321657 -5.926840 -6.615227 -5.954744 -7.055244 1.478308 -46.423208 6.791914 12.771710 -45.553687 40.250694 -5.811936 -18.611512 -24.888134 0.616949 5.444734 -15.563390 -74.966141 63.057065 -2.984201 4.700365 45.217037 -76.679044 -31.802320 -14.264225 -40.073680 10.510112 0.209490 -4.072776 4.589835 -1.536051 -2.198669 -8.046927 -0.661600 5.037983 -0.005953 -0.204200 0.053123 10.138716 -0.416832 -1.657074 5.118931 -1.009187 4.891172 -7.682018 1.709926 -1.983090 -0.062208 -0.212374 -0.049436 
-11.572360 -2.158551 82.755119 2.604871 7.011283 -110.591104 4.516509 3.197315 2.418689 2.018688 1.362884 1.125694 2.018688 1.362884 1.125698 1.516462 1.018464 0.848744 19.207742 -1.921900 -2.955393 -0.547994 -2.572963 -6.011750 -6.621710 -5.867219 -6.835708 1.472642 -44.370825 6.555587 18.136732 -39.856985 42.339520 -3.282833 -19.084711 -25.923032 0.609808 5.459534 -15.556355 -74.221781 63.162099 -3.661978 4.956122 44.616302 -76.565048 -31.910702 -14.876268 -40.684947 10.515730 0.222176 -4.398912 4.648683 -1.584086 -2.353419 -8.169710 -0.614673 5.030728 -0.029799 -0.228795 0.051325 10.023237 -0.429936 -2.020004 5.155234 -1.006019 4.853746 -7.642944 1.805321 -2.058536 -0.072905 -0.263202 -0.046510 
-11.660707 -2.189079 82.744965 2.521609 6.958653 -110.043015 4.496452 3.296746 2.403340 2.012014 1.405311 1.115066 2.012015 1.405313 1.115068 1.511507 1.050331 0.840900 19.174096 -2.073652 -2.986373 -0.618202 -2.838733 -6.117760 -6.742383 -5.763474 -6.660005 1.539346 -42.310283 6.398868 23.496471 -33.135420 43.799828 -1.211848 -19.550081 -26.534957 0.651599 5.441284 -15.561408 -73.492726 63.259341 -4.343410 5.277108 44.406499 -76.501923 -31.812914 -15.310125 -41.188383 10.535561 0.238048 -4.727509 4.699532 -1.637380 -2.559060 -8.292315 -0.568340 5.025482 -0.054861 -0.249845 0.048198 9.927304 -0.438972 -2.324267 5.142715 -1.010181 4.726516 -7.574559 1.902313 -2.156552 -0.080037 -0.308988 -0.041735 
-11.755501 -2.224681 82.737328 2.421979 6.905799 -109.436098 4.474188 3.394693 2.374937 2.002103 1.444022 1.096884 2.002104 1.444021 1.096891 1.504096 1.079442 0.827363 19.145227 -2.226800 -3.024026 -0.679881 -3.105085 -6.236475 -6.820991 -5.646351 -6.378020 1.577483 -40.324962 6.213998 28.291439 -26.192930 44.274850 0.770509 -19.928566 -26.839078 0.725262 5.481892 -15.584620 -72.628379 63.293696 -5.138173 5.608749 44.438935 -76.493208 -31.263722 -15.876324 -41.596334 10.560949 0.268785 -5.066733 4.751844 -1.701757 -2.837542 -8.425285 -0.535116 5.033334 -0.078090 -0.262930 0.043852 9.842243 -0.428342 -2.573529 5.084052 -1.037813 4.501428 -7.484225 1.997205 -2.290376 -0.077299 -0.344540 -0.036736 
-11.856103 -2.266726 82.735008 2.302990 6.847702 -108.762355 4.449105 3.511853 2.339638 1.989814 1.485752 1.074720 1.989814 1.485753 1.074721 1.494897 1.110835 0.810844 19.116158 -2.400609 -3.071721 -0.743389 -3.405889 -6.380397 -6.875129 -5.573106 -6.019768 1.370393 -38.491780 5.897559 32.377252 -19.757456 43.628718 2.726604 -20.273584 -26.922161 0.820731 5.526277 -15.606911 -71.716139 63.318231 -5.979161 5.931977 44.414702 -76.522516 -30.488837 -16.555357 -41.854272 10.588587 0.307132 -5.424775 4.797991 -1.767152 -3.182261 -8.558294 -0.512682 5.070809 -0.104695 -0.273235 0.040113 9.761367 -0.400708 -2.812376 4.987250 -1.096542 4.178651 -7.380322 2.109330 -2.379319 -0.061493 -0.379465 -0.030492 
-11.955469 -2.312071 82.738014 2.168484 6.768649 -108.026805 4.434692 3.608564 2.262808 1.982707 1.518132 1.033941 1.982709 1.518132 1.033942 1.489518 1.135263 0.780348 19.071019 -2.556556 -3.117203 -0.836133 -3.673962 -6.515199 -6.971379 -5.445191 -5.695240 0.952464 -36.970216 5.594103 35.610257 -14.222353 41.954037 4.570904 -20.540614 -26.863445 0.947825 5.625251 -15.584393 -70.910805 63.320041 -6.781162 6.269901 44.158737 -76.565942 -29.949113 -17.091334 -41.974747 10.614209 0.341948 -5.804264 4.810427 -1.832903 -3.518936 -8.673860 -0.481854 5.043912 -0.134562 -0.286005 0.039551 9.651879 -0.378734 -3.082268 4.879375 -1.149176 3.789282 -7.258132 2.222804 -2.473291 -0.045794 -0.415079 -0.025900 
-12.050156 -2.360958 82.744743 2.019341 6.651999 -107.244775 4.410946 3.696476 2.167974 1.971675 1.547462 0.985223 1.971676 1.547460 0.985227 1.481166 1.157436 0.743880 19.020926 -2.706826 -3.168369 -0.938094 -3.929511 -6.658981 -7.027242 -5.357870 -5.331029 -0.062484 -35.606244 5.022742 38.077837 -9.861876 39.625349 6.232375 -20.473687 -26.807070 1.031912 5.771532 -15.527245 -70.110061 63.320683 -7.537426 6.622233 43.710339 -76.578558 -29.732650 -17.332648 -42.049100 10.617895 0.374704 -6.193657 4.790805 -1.910135 -3.833778 -8.772191 -0.436696 4.971498 -0.164043 -0.297848 0.040284 9.488536 -0.358421 -3.372155 4.781377 -1.196004 3.426231 -7.124086 2.341750 -2.598106 -0.031634 -0.448289 -0.022630 
